<svg width="10" height="17" fill="none" xmlns="http://www.w3.org/2000/svg"><path d="M9.342 11.544c0 .996-.324 1.824-.972 2.484-.648.648-1.506 1.038-2.574 1.17V16.8h-1.17v-1.584c-.996-.06-1.848-.33-2.556-.81a4.02 4.02 0 01-1.53-1.962l1.782-1.026c.408 1.044 1.176 1.632 2.304 1.764V9.438c-1.032-.396-1.83-.804-2.394-1.224-.744-.576-1.116-1.41-1.116-2.502 0-.996.336-1.812 1.008-2.448.66-.624 1.494-.984 2.502-1.08V.6h1.17v1.602c1.596.216 2.712 1.038 3.348 2.466L7.398 5.676c-.312-.78-.846-1.254-1.602-1.422v3.564l.864.342c.72.288 1.242.582 1.566.882.804.684 1.176 1.518 1.116 2.502zM3.186 5.712c0 .36.108.66.324.9.216.24.588.486 1.116.738V4.218c-.444.072-.798.24-1.062.504-.252.264-.378.594-.378.99zm2.61 4.176v3.276c.468-.096.828-.288 1.08-.576.264-.288.396-.63.396-1.026 0-.384-.114-.702-.342-.954-.228-.252-.606-.492-1.134-.72z" fill="#fff"/></svg>